<?xml version="1.0" encoding="UTF-8" standalone="no"?>
<svg
   viewBox="0 0 59.624062 35.049483"
   version="1.1"
   id="svg315"
   sodipodi:docname="16x4-2notes.svg"
   inkscape:version="1.2.1 (9c6d41e410, 2022-07-14)"
   width="59.624062"
   height="35.049484"
   xmlns:inkscape="http://www.inkscape.org/namespaces/inkscape"
   xmlns:sodipodi="http://sodipodi.sourceforge.net/DTD/sodipodi-0.dtd"
   xmlns="http://www.w3.org/2000/svg"
   xmlns:svg="http://www.w3.org/2000/svg">
  <defs
     id="defs319" />
  <sodipodi:namedview
     id="namedview317"
     pagecolor="#ffffff"
     bordercolor="#000000"
     borderopacity="0.25"
     inkscape:showpageshadow="2"
     inkscape:pageopacity="0.0"
     inkscape:pagecheckerboard="0"
     inkscape:deskcolor="#d1d1d1"
     showgrid="false"
     inkscape:zoom="1.6479508"
     inkscape:cx="181.43745"
     inkscape:cy="10.012435"
     inkscape:window-width="1920"
     inkscape:window-height="1010"
     inkscape:window-x="-6"
     inkscape:window-y="-6"
     inkscape:window-maximized="1"
     inkscape:current-layer="svg315" />
  <g
     class="abcjs-note abcjs-d0-063 abcjs-p11 abcjs-l0 abcjs-m1 abcjs-mm1 abcjs-v0 abcjs-n0"
     fill="currentColor"
     stroke="none"
     data-name="note"
     selectable="false"
     data-index="5"
     id="g293"
     transform="translate(-203.22067,-57.44)">
    <path
       data-name="g"
       d="m 209.28067,84.385 c 0.36,-0.03 1.2,0 1.53,0.06 1.17,0.24 1.89,0.84 2.16,1.83 0.06,0.18 0.06,0.3 0.06,0.66 0,0.45 0,0.63 -0.15,1.08 -0.66,2.04 -3.06,3.93 -5.52,4.38 -0.54,0.09 -1.44,0.09 -1.83,0.03 -1.23,-0.27 -1.98,-0.87 -2.25,-1.86 -0.06,-0.18 -0.06,-0.3 -0.06,-0.66 0,-0.45 0,-0.63 0.15,-1.08 0.24,-0.78 0.75,-1.53 1.44,-2.22 1.2,-1.2 2.85,-2.01 4.47,-2.22 z"
       id="path289" />
    <path
       d="m 213,57.44 v 30.22 h -0.6 V 57.44 Z"
       class="abcjs-stem"
       data-name="stem"
       id="path291" />
  </g>
  <g
     class="abcjs-note abcjs-d0-063 abcjs-p11 abcjs-l0 abcjs-m1 abcjs-mm1 abcjs-v0 abcjs-n1 abcjs-note_selected"
     fill="#000000"
     stroke="none"
     data-name="note"
     selectable="false"
     data-index="6"
     id="g299"
     transform="translate(-203.22067,-57.44)">
    <path
       data-name="g"
       d="m 220.57536,84.385 c 0.12,-0.03 0.24,-0.03 0.36,0.03 0.03,0.03 0.93,0.72 1.95,1.56 l 1.86,1.5 1.86,-1.5 c 1.02,-0.84 1.92,-1.53 1.95,-1.56 0.21,-0.12 0.33,-0.09 0.75,0.24 0.3,0.27 0.36,0.36 0.36,0.54 0,0.03 -0.03,0.12 -0.06,0.18 -0.03,0.06 -0.9,0.75 -1.89,1.56 l -1.8,1.47 c 0,0.03 0.81,0.69 1.8,1.5 0.99,0.81 1.86,1.5 1.89,1.56 0.03,0.06 0.06,0.15 0.06,0.18 0,0.18 -0.06,0.27 -0.36,0.54 -0.42,0.33 -0.54,0.36 -0.75,0.24 -0.03,-0.03 -0.93,-0.72 -1.95,-1.56 l -1.86,-1.5 -1.86,1.5 c -1.02,0.84 -1.92,1.53 -1.95,1.56 -0.21,0.12 -0.33,0.09 -0.75,-0.24 -0.3,-0.27 -0.36,-0.36 -0.36,-0.54 0,-0.03 0.03,-0.12 0.06,-0.18 0.03,-0.06 0.9,-0.75 1.89,-1.56 l 1.8,-1.47 c 0,-0.03 -0.81,-0.69 -1.8,-1.5 -0.99,-0.81 -1.86,-1.5 -1.89,-1.56 -0.06,-0.12 -0.09,-0.21 -0.03,-0.36 0.03,-0.09 0.57,-0.57 0.72,-0.63 z"
       id="path295" />
    <path
       d="m 229.64,57.44 v 30.22 h -0.6 V 57.44 Z"
       class="abcjs-stem"
       data-name="stem"
       id="path297" />
  </g>
  <g
     class="abcjs-note abcjs-d0-063 abcjs-p11 abcjs-l0 abcjs-m1 abcjs-mm1 abcjs-v0 abcjs-n2"
     fill="currentColor"
     stroke="none"
     data-name="note"
     selectable="false"
     data-index="7"
     id="g305"
     transform="translate(-203.22067,-57.44)">
    <path
       data-name="g"
       d="m 237.18004,84.385 c 0.12,-0.03 0.24,-0.03 0.36,0.03 0.03,0.03 0.93,0.72 1.95,1.56 l 1.86,1.5 1.86,-1.5 c 1.02,-0.84 1.92,-1.53 1.95,-1.56 0.21,-0.12 0.33,-0.09 0.75,0.24 0.3,0.27 0.36,0.36 0.36,0.54 0,0.03 -0.03,0.12 -0.06,0.18 -0.03,0.06 -0.9,0.75 -1.89,1.56 l -1.8,1.47 c 0,0.03 0.81,0.69 1.8,1.5 0.99,0.81 1.86,1.5 1.89,1.56 0.03,0.06 0.06,0.15 0.06,0.18 0,0.18 -0.06,0.27 -0.36,0.54 -0.42,0.33 -0.54,0.36 -0.75,0.24 -0.03,-0.03 -0.93,-0.72 -1.95,-1.56 l -1.86,-1.5 -1.86,1.5 c -1.02,0.84 -1.92,1.53 -1.95,1.56 -0.21,0.12 -0.33,0.09 -0.75,-0.24 -0.3,-0.27 -0.36,-0.36 -0.36,-0.54 0,-0.03 0.03,-0.12 0.06,-0.18 0.03,-0.06 0.9,-0.75 1.89,-1.56 l 1.8,-1.47 c 0,-0.03 -0.81,-0.69 -1.8,-1.5 -0.99,-0.81 -1.86,-1.5 -1.89,-1.56 -0.06,-0.12 -0.09,-0.21 -0.03,-0.36 0.03,-0.09 0.57,-0.57 0.72,-0.63 z"
       id="path301" />
    <path
       d="m 246.24,57.44 v 30.22 h -0.6 V 57.44 Z"
       class="abcjs-stem"
       data-name="stem"
       id="path303" />
  </g>
  <g
     class="abcjs-note abcjs-d0-063 abcjs-p11 abcjs-l0 abcjs-m1 abcjs-mm1 abcjs-v0 abcjs-n3"
     fill="currentColor"
     stroke="none"
     data-name="note"
     selectable="false"
     data-index="8"
     id="g311"
     transform="translate(-203.22067,-57.44)">
    <path
       data-name="g"
       d="m 259.09473,84.385 c 0.36,-0.03 1.2,0 1.53,0.06 1.17,0.24 1.89,0.84 2.16,1.83 0.06,0.18 0.06,0.3 0.06,0.66 0,0.45 0,0.63 -0.15,1.08 -0.66,2.04 -3.06,3.93 -5.52,4.38 -0.54,0.09 -1.44,0.09 -1.83,0.03 -1.23,-0.27 -1.98,-0.87 -2.25,-1.86 -0.06,-0.18 -0.06,-0.3 -0.06,-0.66 0,-0.45 0,-0.63 0.15,-1.08 0.24,-0.78 0.75,-1.53 1.44,-2.22 1.2,-1.2 2.85,-2.01 4.47,-2.22 z"
       id="path307" />
    <path
       d="m 262.81,57.44 v 30.22 h -0.6 V 57.44 Z"
       class="abcjs-stem"
       data-name="stem"
       id="path309" />
  </g>
  <path
     d="M 9.1793311,0 H 59.589331 V 3.87 H 9.1793311 Z m 0,5.81 H 59.589331 V 9.69 H 9.1793311 Z"
     stroke="none"
     fill="currentColor"
     class="abcjs-beam-elem abcjs-d0-063 abcjs-l0 abcjs-m1 abcjs-mm1 abcjs-v0"
     id="path313" />
</svg>
