<?xml version="1.0" encoding="UTF-8" standalone="no"?>
<svg
   viewBox="0 0 9.8100004 31.156816"
   version="1.1"
   id="svg193"
   sodipodi:docname="4note.svg"
   width="9.8100004"
   height="31.156816"
   inkscape:version="1.2.1 (9c6d41e410, 2022-07-14)"
   xmlns:inkscape="http://www.inkscape.org/namespaces/inkscape"
   xmlns:sodipodi="http://sodipodi.sourceforge.net/DTD/sodipodi-0.dtd"
   xmlns="http://www.w3.org/2000/svg"
   xmlns:svg="http://www.w3.org/2000/svg">
  <defs
     id="defs197" />
  <sodipodi:namedview
     id="namedview195"
     pagecolor="#ffffff"
     bordercolor="#000000"
     borderopacity="0.25"
     inkscape:showpageshadow="2"
     inkscape:pageopacity="0.0"
     inkscape:pagecheckerboard="0"
     inkscape:deskcolor="#d1d1d1"
     showgrid="false"
     inkscape:zoom="2.007669"
     inkscape:cx="319.77382"
     inkscape:cy="6.2261258"
     inkscape:window-width="1920"
     inkscape:window-height="1010"
     inkscape:window-x="-6"
     inkscape:window-y="-6"
     inkscape:window-maximized="1"
     inkscape:current-layer="svg193" />
  <g
     class="abcjs-note abcjs-d0-25 abcjs-p11 abcjs-l0 abcjs-m0 abcjs-mm0 abcjs-v0 abcjs-n0"
     fill="currentColor"
     stroke="none"
     data-name="note"
     selectable="false"
     data-index="0"
     id="g191"
     transform="translate(-65.081,-61.31)">
    <path
       data-name="g"
       d="m 71.141,84.385 c 0.36,-0.03 1.2,0 1.53,0.06 1.17,0.24 1.89,0.84 2.16,1.83 0.06,0.18 0.06,0.3 0.06,0.66 0,0.45 0,0.63 -0.15,1.08 -0.66,2.04 -3.06,3.93 -5.52,4.38 -0.54,0.09 -1.44,0.09 -1.83,0.03 -1.23,-0.27 -1.98,-0.87 -2.25,-1.86 -0.06,-0.18 -0.06,-0.3 -0.06,-0.66 0,-0.45 0,-0.63 0.15,-1.08 0.24,-0.78 0.75,-1.53 1.44,-2.22 1.2,-1.2 2.85,-2.01 4.47,-2.22 z"
       id="path187" />
    <path
       d="m 74.86,61.31 v 25.83 h -1 V 61.31 Z"
       class="abcjs-stem"
       data-name="stem"
       id="path189" />
  </g>
</svg>
