<?xml version="1.0" encoding="UTF-8" standalone="no"?>
<svg
   viewBox="0 0 33.292572 35.026816"
   version="1.1"
   id="svg225"
   sodipodi:docname="16x2notes.svg"
   width="33.292572"
   height="35.026817"
   inkscape:version="1.2.1 (9c6d41e410, 2022-07-14)"
   xmlns:inkscape="http://www.inkscape.org/namespaces/inkscape"
   xmlns:sodipodi="http://sodipodi.sourceforge.net/DTD/sodipodi-0.dtd"
   xmlns="http://www.w3.org/2000/svg"
   xmlns:svg="http://www.w3.org/2000/svg">
  <defs
     id="defs229" />
  <sodipodi:namedview
     id="namedview227"
     pagecolor="#ffffff"
     bordercolor="#000000"
     borderopacity="0.25"
     inkscape:showpageshadow="2"
     inkscape:pageopacity="0.0"
     inkscape:pagecheckerboard="0"
     inkscape:deskcolor="#d1d1d1"
     showgrid="false"
     inkscape:zoom="1.6479508"
     inkscape:cx="286.41631"
     inkscape:cy="10.012435"
     inkscape:window-width="1920"
     inkscape:window-height="1010"
     inkscape:window-x="-6"
     inkscape:window-y="-6"
     inkscape:window-maximized="1"
     inkscape:current-layer="svg225" />
  <g
     class="abcjs-note abcjs-d0-125 abcjs-p11 abcjs-l0 abcjs-m0 abcjs-mm0 abcjs-v0 abcjs-n1"
     fill="currentColor"
     stroke="none"
     data-name="note"
     selectable="false"
     data-index="1"
     id="g215"
     transform="translate(-98.290374,-57.44)">
    <path
       data-name="g"
       d="m 104.35037,84.385 c 0.36,-0.03 1.2,0 1.53,0.06 1.17,0.24 1.89,0.84 2.16,1.83 0.06,0.18 0.06,0.3 0.06,0.66 0,0.45 0,0.63 -0.15,1.08 -0.66,2.04 -3.06,3.93 -5.52,4.38 -0.54,0.09 -1.44,0.09 -1.83,0.03 -1.229996,-0.27 -1.979996,-0.87 -2.249996,-1.86 -0.06,-0.18 -0.06,-0.3 -0.06,-0.66 0,-0.45 0,-0.63 0.15,-1.08 0.24,-0.78 0.75,-1.53 1.44,-2.22 1.199996,-1.2 2.849996,-2.01 4.469996,-2.22 z"
       id="path211" />
    <path
       d="m 108.07,57.44 v 30.22 h -0.6 V 57.44 Z"
       class="abcjs-stem"
       data-name="stem"
       id="path213" />
  </g>
  <g
     class="abcjs-note abcjs-d0-125 abcjs-p11 abcjs-l0 abcjs-m0 abcjs-mm0 abcjs-v0 abcjs-n2"
     fill="currentColor"
     stroke="none"
     data-name="note"
     selectable="false"
     data-index="2"
     id="g221"
     transform="translate(-98.290374,-57.44)">
    <path
       data-name="g"
       d="m 127.83295,84.385 c 0.36,-0.03 1.2,0 1.53,0.06 1.17,0.24 1.89,0.84 2.16,1.83 0.06,0.18 0.06,0.3 0.06,0.66 0,0.45 0,0.63 -0.15,1.08 -0.66,2.04 -3.06,3.93 -5.52,4.38 -0.54,0.09 -1.44,0.09 -1.83,0.03 -1.23,-0.27 -1.98,-0.87 -2.25,-1.86 -0.06,-0.18 -0.06,-0.3 -0.06,-0.66 0,-0.45 0,-0.63 0.15,-1.08 0.24,-0.78 0.75,-1.53 1.44,-2.22 1.2,-1.2 2.85,-2.01 4.47,-2.22 z"
       id="path217" />
    <path
       d="m 131.55,57.44 v 30.22 h -0.6 V 57.44 Z"
       class="abcjs-stem"
       data-name="stem"
       id="path219" />
  </g>
  <path
     d="M 9.1796258,0 H 33.259626 V 3.87 H 9.1796258 Z"
     stroke="none"
     fill="currentColor"
     class="abcjs-beam-elem abcjs-d0-125 abcjs-l0 abcjs-m0 abcjs-mm0 abcjs-v0"
     id="path223" />
</svg>
