<?xml version="1.0" encoding="UTF-8" standalone="no"?>
<svg
   viewBox="0 0 47.292519 47.434883"
   version="1.1"
   id="svg117"
   sodipodi:docname="triplet.svg"
   width="47.292519"
   height="47.434883"
   inkscape:version="1.2.1 (9c6d41e410, 2022-07-14)"
   xmlns:inkscape="http://www.inkscape.org/namespaces/inkscape"
   xmlns:sodipodi="http://sodipodi.sourceforge.net/DTD/sodipodi-0.dtd"
   xmlns="http://www.w3.org/2000/svg"
   xmlns:svg="http://www.w3.org/2000/svg">
  <defs
     id="defs121" />
  <sodipodi:namedview
     id="namedview119"
     pagecolor="#ffffff"
     bordercolor="#000000"
     borderopacity="0.25"
     inkscape:showpageshadow="2"
     inkscape:pageopacity="0.0"
     inkscape:pagecheckerboard="0"
     inkscape:deskcolor="#d1d1d1"
     showgrid="false"
     inkscape:zoom="2.0077922"
     inkscape:cx="32.871928"
     inkscape:cy="22.661708"
     inkscape:window-width="1920"
     inkscape:window-height="1010"
     inkscape:window-x="-6"
     inkscape:window-y="-6"
     inkscape:window-maximized="1"
     inkscape:current-layer="svg117" />
  <g
     class="abcjs-note abcjs-d0-083 abcjs-p11 abcjs-l0 abcjs-m3 abcjs-mm3 abcjs-v0 abcjs-n0"
     fill="currentColor"
     stroke="none"
     data-name="note"
     selectable="false"
     data-index="13"
     id="g95"
     transform="translate(-352.1981,-45.031935)">
    <path
       data-name="g"
       d="m 358.2581,84.385 c 0.36,-0.03 1.2,0 1.53,0.06 1.17,0.24 1.89,0.84 2.16,1.83 0.06,0.18 0.06,0.3 0.06,0.66 0,0.45 0,0.63 -0.15,1.08 -0.66,2.04 -3.06,3.93 -5.52,4.38 -0.54,0.09 -1.44,0.09 -1.83,0.03 -1.23,-0.27 -1.98,-0.87 -2.25,-1.86 -0.06,-0.18 -0.06,-0.3 -0.06,-0.66 0,-0.45 0,-0.63 0.15,-1.08 0.24,-0.78 0.75,-1.53 1.44,-2.22 1.2,-1.2 2.85,-2.01 4.47,-2.22 z"
       id="path91" />
    <path
       d="m 361.98,57.44 v 30.22 h -0.6 V 57.44 Z"
       class="abcjs-stem"
       data-name="stem"
       id="path93" />
  </g>
  <g
     class="abcjs-note abcjs-d0-083 abcjs-p11 abcjs-l0 abcjs-m3 abcjs-mm3 abcjs-v0 abcjs-n1"
     fill="currentColor"
     stroke="none"
     data-name="note"
     selectable="false"
     data-index="14"
     id="g101"
     transform="translate(-352.1981,-45.031935)">
    <path
       data-name="g"
       d="m 376.99936,84.385 c 0.36,-0.03 1.2,0 1.53,0.06 1.17,0.24 1.89,0.84 2.16,1.83 0.06,0.18 0.06,0.3 0.06,0.66 0,0.45 0,0.63 -0.15,1.08 -0.66,2.04 -3.06,3.93 -5.52,4.38 -0.54,0.09 -1.44,0.09 -1.83,0.03 -1.23,-0.27 -1.98,-0.87 -2.25,-1.86 -0.06,-0.18 -0.06,-0.3 -0.06,-0.66 0,-0.45 0,-0.63 0.15,-1.08 0.24,-0.78 0.75,-1.53 1.44,-2.22 1.2,-1.2 2.85,-2.01 4.47,-2.22 z"
       id="path97" />
    <path
       d="m 380.72,57.44 v 30.22 h -0.6 V 57.44 Z"
       class="abcjs-stem"
       data-name="stem"
       id="path99" />
  </g>
  <g
     class="abcjs-note abcjs-d0-083 abcjs-p11 abcjs-l0 abcjs-m3 abcjs-mm3 abcjs-v0 abcjs-n2 "
     fill="currentColor"
     stroke="none"
     data-name="note"
     selectable="false"
     data-index="15"
     id="g107"
     transform="translate(-352.1981,-45.031935)">
    <path
       data-name="g"
       d="m 395.74062,84.385 c 0.36,-0.03 1.2,0 1.53,0.06 1.17,0.24 1.89,0.84 2.16,1.83 0.06,0.18 0.06,0.3 0.06,0.66 0,0.45 0,0.63 -0.15,1.08 -0.66,2.04 -3.06,3.93 -5.52,4.38 -0.54,0.09 -1.44,0.09 -1.83,0.03 -1.23,-0.27 -1.98,-0.87 -2.25,-1.86 -0.06,-0.18 -0.06,-0.3 -0.06,-0.66 0,-0.45 0,-0.63 0.15,-1.08 0.24,-0.78 0.75,-1.53 1.44,-2.22 1.2,-1.2 2.85,-2.01 4.47,-2.22 z"
       id="path103" />
    <path
       d="m 399.46,57.44 v 30.22 h -0.6 V 57.44 Z"
       class="abcjs-stem"
       data-name="stem"
       id="path105" />
  </g>
  <path
     d="m 9.181893,12.408065 h 38.080001 v 3.87 H 9.181893 Z"
     stroke="none"
     fill="currentColor"
     class="abcjs-beam-elem abcjs-d0-083 abcjs-l0 abcjs-m3 abcjs-mm3 abcjs-v0"
     id="path109" />
  <g
     class="abcjs-triplet abcjs-d0-083 abcjs-l0 abcjs-m3 abcjs-mm3 abcjs-v0"
     data-name="triplet"
     id="g115"
     transform="translate(-348.71168,-39.55328)">
    <text
       stroke="none"
       font-size="15px"
       font-style="italic"
       font-family="Times"
       font-weight="normal"
       text-decoration="none"
       text-anchor="middle"
       x="375.81"
       y="49.689999"
       data-name="3"
       id="text113"
       style="text-decoration:none;text-decoration-line:none"><tspan
         x="375.81"
         id="tspan111">3</tspan></text>
  </g>
</svg>
